<?xml version="1.0" standalone="no"?>
<!DOCTYPE svg PUBLIC "-//W3C//DTD SVG 20010904//EN"
 "http://www.w3.org/TR/2001/REC-SVG-20010904/DTD/svg10.dtd">
<svg version="1.0" xmlns="http://www.w3.org/2000/svg"
 width="700.000000pt" height="700.000000pt" viewBox="0 0 700.000000 700.000000"
 preserveAspectRatio="xMidYMid meet">
<metadata>
Created by potrace 1.14, written by Peter Selinger 2001-2017
</metadata>
<g transform="translate(0.000000,700.000000) scale(0.100000,-0.100000)"
fill="#000000" stroke="none">
<path d="M1194 5705 c-186 -40 -346 -163 -428 -329 -70 -142 -67 -31 -64
-1909 l3 -1692 23 -65 c38 -104 80 -170 161 -250 56 -55 96 -85 152 -112 151
-73 -24 -68 2466 -68 2493 0 2308 -5 2462 71 170 84 294 252 327 441 12 72 14
333 11 1744 -3 1851 4 1688 -74 1844 -51 104 -169 221 -273 272 -149 73 22 68
-2467 67 -1819 0 -2249 -3 -2299 -14z m943 -931 c47 -23 908 -1139 924 -1199
8 -28 8 -49 0 -76 -12 -40 -872 -1139 -918 -1173 -55 -42 -170 -16 -215 47
-28 40 -36 123 -15 163 9 16 187 247 395 514 318 405 378 487 369 500 -7 9
-175 230 -374 492 -199 261 -371 490 -382 509 -44 71 -12 186 61 222 43 21
111 21 155 1z m2883 -2257 c115 -60 115 -221 2 -285 l-40 -22 -937 0 c-1045 0
-983 -4 -1030 69 -30 47 -39 91 -26 138 11 41 60 96 101 112 16 6 366 10 956
10 l931 1 43 -23z"/>
</g>
</svg>
